<?xml version="1.0" encoding="utf-8"?>
<!-- Generator: Adobe Illustrator 19.0.0, SVG Export Plug-In . SVG Version: 6.00 Build 0)  -->
<svg version="1.1" id="Layer_1" xmlns="http://www.w3.org/2000/svg" xmlns:xlink="http://www.w3.org/1999/xlink" x="0px" y="0px"
	 viewBox="0 0 860 599" style="enable-background:new 0 0 860 599;" xml:space="preserve">
<style type="text/css">
	.st0{fill:#FEFEFE;}
	.st1{fill:#006FE3;}
	.st2{fill:#0072E4;}
	.st3{fill:#018BE7;}
	.st4{fill:#008CE7;}
	.st5{fill:#0083E6;}
	.st6{fill:#0098E8;}
	.st7{fill:#0083E5;}
	.st8{fill:#0062E1;}
	.st9{fill:#009DE9;}
	.st10{fill:#007CE5;}
	.st11{fill:#197AF0;}
	.st12{fill:#06EAFE;}
	.st13{fill:#0FD7FD;}
	.st14{fill:#0288E6;}
	.st15{fill:#0269E2;}
	.st16{fill:#3184CB;}
	.st17{fill:#0BDBFE;}
	.st18{fill:#017AE7;}
	.st19{fill:#01A7F0;}
	.st20{fill:#0267E2;}
	.st21{fill:#007DE5;}
	.st22{fill:#85BFF2;}
	.st23{fill:#D4EAFB;}
	.st24{fill:#B5D9F7;}
	.st25{fill:#76B8F1;}
	.st26{fill:#CEE7F7;}
	.st27{fill:#D5E9FA;}
	.st28{fill:#E5F0FB;}
	.st29{fill:#F3F8FC;}
	.st30{fill:#B8DCF7;}
	.st31{fill:#E3F1FB;}
	.st32{fill:#F3F9FD;}
	.st33{fill:#A7D4F5;}
	.st34{fill:#D1E8F9;}
	.st35{fill:#AED8F7;}
	.st36{fill:#EEF6F9;}
	.st37{fill:#74B9F1;}
	.st38{fill:#A2CFF4;}
</style>
<path class="st0" d="M431.1,600.1c-131.6,0-263.1,0-394.7,0.1c-3.8,0-4.8-0.6-4.8-4.7c0.1-98.3,0.1-196.6,0.1-294.9
	c2.8-2.3,6.2-1.5,9.4-1.5c80.6,0,161.2,0.1,241.7-0.1c45.9-0.1,91.8-0.1,137.7-0.2c3.2,0,6.5-0.4,9.7,0.8c0.7,0.3,1.2,0.8,1.6,1.4
	c1.3,2.7,1,5.7,1,8.5c0,51.6,0.2,103.3,0,154.9c-0.2,42.4,0,84.9-0.2,127.3C432.6,594.6,433.2,597.6,431.1,600.1z"/>
<path class="st0" d="M431.1,1.1c131.5,0,263,0,394.5-0.1c4.1,0,5,0.9,5,5c-0.1,98.2-0.1,196.4-0.1,294.6c-2.7,2.2-5.9,1.5-8.9,1.5
	c-49.1,0-98.2,0-147.4,0c-42.3,0-84.6-0.2-126.9,0.1c-35.6,0.2-71.2,0-106.9,0.2c-3.2,0-6.6,0.6-9.4-1.8l0.1,0.1
	c-1.9-2.1-1.8-4.7-1.8-7.2c0.1-56.6-0.2-113.1,0.2-169.7c0.2-38.1,0-76.3,0.1-114.4C429.6,6.6,429,3.6,431.1,1.1z"/>
<path class="st1" d="M31.8,299.5c0-97.9,0-195.9-0.1-293.8c0-3.9,0.7-4.7,4.7-4.7C120.9,1.1,205.5,1.1,290,1.1
	c1.8,2.1,2,5.5,0.3,6.3c-5.5,2.7-6.3,9.4-11.8,12c-4,1.9-4.5,6.4-5.3,10.2c-1,4.7-2.7,7.8-8.2,7.2c-2.2-0.2-3.4,0.9-4,2.9
	c-0.4,1.2-0.9,2.4-1.3,3.6c-2.1,6.5-5.3,11.3-13.4,10.5c-3.2-0.3-5.3,2.4-4.1,5.5c3.7,9.2-3.4,14.4-7.5,20.4c-1.6,2.3-3.4,4-2.9,7
	c0.3,2.1,0.1,4-2.7,4.3c-1.3,0.1-3.3-1-3.2-0.7c1,5-7.2,6.2-4.8,11.6c0.3,0.7,0.3,1.4,1.3,2.1c3.7-2.7,6.9-5.9,9.8-9.5
	c2-2.5,4.2-4,7.4-2.8c2.1,2.3-0.1,3.5-1.4,4.8c-3.5,3.4-6.9,6.9-10.4,10.3c-3.7,3.5-7.1,7.2-11.3,10c-0.6,0.5-1.3,0.8-2.1,0.9
	c-1.9-0.1-3.2-1.4-4.6-2.6c-8.3-7.3-16.8-7.1-24.6,0.7c-1,1-2,2-2.9,3.1c-6.6,6.4-13.2,12.8-19.6,19.4c-7.3,7.5-7.7,15.4-1.4,23.7
	c2.5,3.3,5.9,5.9,7.3,9.9c-2.3,2.5-4,0.3-5.3-1.1c-2.9-3-5.9-5.8-8.5-9.1c-2.1-2.7-6.4-3-8.4-0.3c-2,2.8-4.8,4.9-6.2,8.1
	c-1.3,2.9-3.3,5-6,6.7c-4,2.6-6.2,7-8.2,11.1c-2.3,4.8-5.7,8.8-8.9,12.7c-3.3,3.8-5.1,8.7-10.1,11.6c-3,1.7-3.1,7-4.8,10.6
	c-1.2,2.7-2.7,4.9-5.3,6.5c-4,2.6-6.4,6.7-8.9,10.6c-1.1,1.7-1.6,4-3.5,4.7c-5.8,2.4-6.8,8-9,12.8c-0.5,1.1-0.4,3-1.4,3.4
	c-4.8,2-7.4,6.3-9.6,10.3c-3.5,6.3-11.5,9.1-12.6,17.2c-0.7,5.7,0,7.2,5.7,7.8c2.1,0.2,4.5-0.2,6.3,1.2c1.2,0.9,3.1,2.4-0.3,3.1
	C53.1,299.7,42.4,300.7,31.8,299.5z"/>
<path class="st2" d="M694.8,600.1c-34.7,0-69.4,0-104.2,0c-2.7-4.4-1.3-8.1,2.2-11c4.4-3.5,7.2-7.8,9.2-13.1
	c2.2-5.7,7.2-9.9,10-15.4c0.5-1,1.6-1.5,2.7-1.7c4.8-1.2,7.6-4.6,9.5-8.9c0.7-1.5,1.6-2.9,2.9-3.9c3.4-2.5,4.3-5.7,4.7-9.8
	c0.4-5.1,3.9-9.3,7.8-11.7c4.4-2.7,7.3-6.3,9.9-10.4c1-1.6,1.9-3.7,3.7-3.6c4.3,0.1,7.1-2.5,10.1-4.9c6.4-0.2,12.5-1.1,17.7-5.3
	c7.7-6.1,10.4-13.9,8.5-23.5c-1.9-7.2-6.5-12.9-9.9-19.3c-2.1-4-5-7.5-6.1-11.9c0-0.8,0.2-1.6,0.9-2.2c4.2-1.5,5.5,1.8,7.3,4.3
	c-0.7-3.3-2.5-6-5.3-8.2c-1.7-1.3-3.8-3.2-2.4-5.4c2-3.2,1.7-8.1,6.4-9.5c3-0.9,4.6,1.1,6.2,3.5c1.2-3.6,1.7-7.2,2.9-10.6
	c2.8-7.8,6.6-14.5,14.5-18.3c2.8-1.3,3.1-4.4,3.3-7c0.4-6,2.7-9.7,9.1-10.8c4.8-0.8,8.2-3.1,7.5-9.1c-0.4-3.8,1.8-6.5,5.5-7.8
	c1.9-0.7,3.6-1.7,5.5-2.4c2.4-0.9,3.6-2.1,2.6-4.9c-1.3-3.6-0.2-6.8,2.6-9.3c3.1-2.8,4-7,7-10.2c2.9-3.1,5.4-6.2,9.4-8.4
	c3.4-1.8,4.3-6.5,5.8-10.1c2.8-6.4,5.7-8.8,12.8-9.1c1.2,0,2.4,0.5,3.7-0.1c-1.6-2.9-4.3-4.1-7.2-5.2c-2.9-1.1-2.8-1.8-0.2-3.8
	c17.7,0,35.4,0.1,53.1-0.1c4.2,0,5.5,1,5.5,5.4c-0.2,33.2-0.1,66.5-0.1,99.7c-1.2,8.2-4.3,16-6.3,24c-0.7,2.9-2.1,5.9-6.6,2.3
	c1,3.3,2.3,6.2,0.7,9.1c-1.5,2.8-4.4,3.5-7.1,4.6c-1.2,0.5-2.7,1-2.9,2.2c-1,7.5-8.2,11-10.7,17.4c-2.2,5.5-7.5,8.4-10.8,13.1
	c-3.4,4.7-5.3,10.5-9.7,14.6c-0.4,0.3-0.3,1.2-0.7,1.4c-9.1,4.7-9.5,17.1-18.9,21.6c-0.5,0.2-1,0.6-1.1,1.1
	c-1.6,9-10.7,13.7-12.6,22.5c-0.1,0.5-0.4,1.1-0.8,1.4c-6,4.2-9.8,9.9-12.5,16.5c-0.5,1.2-1.9,1.9-3.1,2c-7.8,0.3-9,6.6-10.8,12.1
	c-0.8,2.3-1.1,4.9-3.8,5.3c-5.7,1-7.4,6-8.6,10c-1.2,4.2-2.3,7.7-6.3,10C696.1,597.7,695.7,599.2,694.8,600.1z"/>
<path class="st3" d="M460.4,600.1c-9.4,0-18.8,0-28.2,0c-1-1.5-0.5-3.2-0.5-4.8c0-40.1,0-80.2-0.1-120.4c0-3-0.1-5.6,3.3-7.2
	c2.2-1,2-3.6,2.2-5.8c0.7-7.2,1.4-8.7,8.2-10.1c6.8-1.3,9.8-6.4,13.2-11.1c3.8-5.2,9.2-9.8,7.2-17.7c-0.8-3.2,1.9-5.4,4.9-6.2
	c5.8-1.5,9.2-5.1,11.3-10.6c1.7-4.3,4.7-7.7,9.6-8.7c2.4-0.5,3.8-2.2,4.1-4.5c0.7-6.5,3.8-10.7,9.2-14.9c5.6-4.4,9.6-11.2,13.4-17.5
	c3.3-5.4,6.5-10.8,10.8-15.4c2.5-2.6,3.5-5.9,5.1-8.9c2.2-4,4.8-7.2,9.4-8.3c4.2-0.9,5.1-4.6,5.6-7.9c0.8-5.8,2.9-10,10.3-10.8
	c-5.3-4.1-11.5-3.7-15.6-7.8c37.4-0.6,74.7-0.6,112-0.6c3.4,1.4,7.1,1.2,10.7,1.3c4.3,0.1,8.3,1.3,11,4.8c2.4,3,1.3,5.6-2.6,6
	c-2.7,0.2-5.4-0.8-8.1-0.1c3.5,4.9,3.3,6.5-1.9,9.7c-4.6,2.9-5.5,7.9-7.6,12.1c-3,6.1-5.3,12.1-12.9,14.8c-4.5,1.5-7.2,6.8-9.7,11.1
	c-1.7,2.8-3.2,5.1-6.5,5.9c-3.1,0.8-3.9,2.8-3.3,5.8c0.3,1.4,0.8,2.8,1.1,4.2c1,4.2-0.5,7.1-4.7,8.4c-4,1.2-8,2.5-11.8,0.3
	c1,1,1.9,2.6,1,4.2c-2.3,4.2-3.8,9.4-7.9,12c-3.9,2.6-4.5,5-3.1,9c1.2,3.3-0.2,6-3.5,6.9c-7.4,2-10.4,8.2-14.1,13.8
	c-1.4,2.1-2.7,3.9-5.1,4.5c-3.3,0.8-5.2,2.9-4.6,6.2c1.7,9.4-5.6,13.7-10.8,19.1c-1.8,1.9-4.2,3.2-5.4,5.8c-1.1,2.4-3.2,4-5.7,4.8
	c-3.9,1.3-5.5,3.9-5.3,7.8c0.3,4.3-1.7,6.7-5.3,9.1c-4.1,2.7-6.9,7.2-9.5,11.4c-1.6,2.6-3.1,4.8-6.1,5.6c-3.3,0.8-4.3,3.1-4,6.1
	c0.8,9.7-5.9,14.8-12.1,20.1c-1.6,1.3-3,2.5-3.7,4.4c-1.1,2.7-3,4.6-5.8,5.2c-4.2,0.9-5.6,3.6-5.4,7.5c0.2,3.9-1.3,6.5-4.8,8.9
	c-3.9,2.7-6,7.5-8.9,11.2c-2.3,2.8-4.1,5.3-8,5.6c-2.5,0.1-4.5,1.8-4.1,4.2C468.8,587.1,463.5,593.2,460.4,600.1z"/>
<path class="st4" d="M410.5,1.1c6.5,0,13,0,19.5,0c0.9,1.1,0.5,2.4,0.5,3.7c0,38.7,0,77.4,0,116.1c0,1.2,0.3,2.5-1,4.3
	c-5.3-5.7-1.5-13.6-4.7-19.9c-2.1,2.6-1.7,5.2-1.9,7.7c-0.1,1.4,0,2.9-0.1,4.3c-0.2,2.5-0.2,5.5-3,6.5c-3,1.1-3.6-2.3-5.6-4
	c-1.7,4.4-5.3,5.5-9.6,5.5c-3.8,0-4.6,1.7-3.2,5.2c2.8,6.8,2.1,7.7-4,12.4c-3.7,2.8-6,7-8.1,11.2c-0.7,1.4-0.8,3.4-2.3,4.1
	c-6.3,2.9-8.5,8.9-11.3,14.5c-0.5,1-0.9,2.1-1.8,2.6c-5.3,2.7-7.1,8.1-9.4,12.8c-2.2,4.6-5.3,6.4-10.2,6.5c-6.4,0.2-6.5,0.5-4.2,6.5
	c1.1,3,1.3,6.1-1.7,7.7c-6.3,3.3-7.8,9.9-11.3,15.2c-0.9,1.3-1.1,3.2-2.7,3.9c-5.8,2.6-7.6,8.3-10.4,13.2c-0.7,1.3-1,3-2.3,3.6
	c-5.3,2.5-6.9,7.8-9.1,12.4c-2.3,4.7-5.3,7.2-10.4,6.9c-4.6-0.3-6.4,1.7-7.1,6.1c-1.2,7.4-4,14.1-8.7,20.1c-2.3,2.9-2.5,5.2,2.1,5.9
	c1.6,0.2,3.1,0.9,3.8,3.8c-35.4,0-70.5,0-105.6,0c-3.4-1.2-7.1-1.4-10.5-2.7c-4-1.5-5.7-4.7-4.2-8.6c1.3-3.6,3-7.4,6.2-9.3
	c5.1-3.2,6.8-8.2,8.8-13.2c1.2-3,2.8-4.9,5.6-6.7c4.9-3.1,9-6.8,12-12.4c4.1-7.6,7.3-15.9,14.2-21.9c3.4-2.9,3.1-8.3,6.9-11.4
	c1-0.8-1.5-2.5-2.3-3.8c-3.2-5.8-1.7-10.5,4.2-13c3.9,0.3,5.7,3.6,8.1,5.9c2.8,2.7,5.6,5.1,9.8,5.2c6.6,0.9,11.8-1.5,16.2-6.4
	c4.5-5,9.8-9.4,14.1-14.7c7.5-6.8,14.5-14.1,21.7-21.2c5.5-5.4,9.4-11.5,8.2-19.6c1.6-4.5,0.5-7.8-3.6-9.8c-2.9-1.4-2.1-3.2-0.5-4.6
	c3.8-3.4,6.2-8,11.1-10.7c4-2.1,6.1-7.3,11.2-8.7c0.8-0.2,1.2-1.4,1.3-2.3c0.8-6.6,3.6-12.4,7.9-17.4c0.5-0.5,0.6-1.7,1.1-1.8
	c8.9-1.4,8.1-11.4,13.8-15.6c1.5-1,2.5-2.8,2.9-4.5c1.5-6,5.9-10.3,9.2-15.1c3-4.3,7.9-7.6,12.2-11c1.3-1,3-1.7,3.4-3.3
	c1.8-6.9,5.4-12.9,9.6-18.5c0.9-1.2,1.4-2.8,2.9-3c5.4-0.6,10.1-3.6,15.4-4.1c3.1-0.3,3.9-1.6,4.4-4.2C408.8,8,408.3,4.2,410.5,1.1z
	"/>
<path class="st5" d="M460.4,600.1c-0.3-3.7,0.2-6.9,3.7-9.4c2.8-2,1.6-5.7,1.7-8.7c0.1-7.7,0-7.7,7.6-9.1c0.9-0.2,2.3-0.5,2.4-0.9
	c1.1-5.3,7.6-6.9,8.4-12.3c0.4-2.2,1.8-3.2,3.6-3.6c3.8-0.8,4.3-3.3,4.1-6.4c-0.3-5.1,0.2-9.6,7-9.6c0.5,0,1.2-0.3,1.4-0.7
	c2.7-5.3,7.5-8.5,11.6-12.5c1.6-1.6,2.4-4.2,4.7-5.5c3.4-1.9,2.6-5.4,2.3-8.3c-0.5-5.1,0.3-8.9,6.4-9.4c0.8-0.1,2.3-0.7,2.3-1
	c-0.2-6,7-7.1,7.9-12.4c0.3-1.6,1.9-2.9,3.5-3.2c4.8-0.9,5.2-4.1,4.9-8.1c-0.3-4.4,0.7-8,6-8.4c0.7-0.1,1.6-0.4,1.9-0.9
	c3.4-5.5,9-8.8,12.8-13.9c0.4-0.6,0.7-1.5,1.2-1.7c6.4-2.3,5.4-7.7,5.1-12.6c-0.2-3.7,0.6-6.2,4.9-6.7c2.8-0.3,3.7-2.8,5.4-4.9
	c3.9-4.9,5.6-12.4,13.7-13.3c3.4-0.4,5-2.4,3.3-6.2c-1.7-4-2.8-7.1,3.3-9.6c4.3-1.8,6.1-7.9,8.1-12.5c1.2-2.8-2.5-2.7-4.3-3.6
	c0.7-2,2.2-2,3.4-1c1.7,1.3,3.6,1.6,5.6,1.5c9.7-0.4,11.6-2.9,9.1-12.1c-1-3.9-1.2-7.2,4.2-7.8c2.7-0.3,5.2-1.3,5.3-5
	c0.1-1.9,1.3-3.7,3.4-4.6c1.3-0.6,2.6-1.1,2.9-2.9c0.6-4,3.6-5.2,7-5.5c2.7-0.3,3.7-1.8,5-4c3.6-6.2,6.7-12.6,9.1-19.4
	c0.6-1.6,2.4-1.4,3.6-2c1.8-0.9,4-1.6,4.1-3.9c0.2-2.4-1.9-3.2-3.8-3.8c-0.6-0.2-1.2-0.8-2.3-1.6c4-1.8,7.7-1.3,11.2-0.7
	c1.8,0.3,3.5,0.6,4.4-0.9c1.1-1.9-1.1-2.8-2.1-3.8c-2.9-3-6.7-3.1-10.5-3.3c-2.9-0.1-6.3,1.5-8.4-2.1c5.8-1.3,11.8-0.2,17.6-0.6
	c29.8,0,59.6,0,89.4,0c1.9,0,4-0.5,5.8,0.5c0.1,2,1.6,2.2,3.1,2.1c4.5,0,5.7,4.6,8.9,6.4c0.2,0.1,0.2,1.1,0,1.4
	c-0.8,0.9-1.9,1-3,0.5c-3.1-1.4-6-0.4-8.9,0.5c-3.3,1-4.5,2.8-6,6.2c-2.2,5-2.2,13.1-10.7,13.5c-0.5,0-1.2,0.5-1.3,0.9
	c-0.6,5.1-6.7,6.6-7.6,11.5c-0.2,1.3-1.3,2.8-2.4,3.5c-4.1,2.8-4.5,6.2-2.3,10.3c1.4,2.5,0.5,3.6-2.2,4c-1.2,0.2-2.3,1.1-3.5,1.4
	c-6.9,1.7-10,5.7-8.7,12.9c0.4,2.1-0.2,3.6-3,4c-3.3,0.6-6.4,2.3-9.7,3c-3.7,0.8-3,4-3.3,6c-0.8,5.7-0.9,11.4-8.6,12
	c-0.6,0-1.2,0.8-1.6,1.4c-5.1,7.7-10.1,15.5-10.7,25.2c-0.1,1.2,0.2,2.9-1.5,3c-1.8,0.1-1.6-1.6-1.7-2.8c-0.1-2.2-1.2-3.4-3.4-3.3
	c-2.1,0.1-3.5,1.3-3.9,3.2c-0.5,2-0.5,4-2.4,5.7c-2.1,1.9,0.6,3.5,1.9,4.1c4.9,2.3,5.2,7,6.4,11.2c0.3,1.1,0.5,2.3-1,2.5
	c-1.5,0.3-1.7-0.9-1.8-2.1c-0.4-4-2.4-6.3-6.6-6.2c-0.2-0.2-0.4-0.3-0.6-0.5c-1.8-4.2-4.7-7.9-4.7-12.9c0-3.1-2.5-0.3-3.6-1.2
	c-5.4-3-6-9.4-9.5-13.7c-1.5-1.9-2.6-4.2-4-6.3c-7-12.3-16.8-16.6-29.4-12.4c-8,2.7-12.6,8.6-14.4,16.8c-1,2.8-0.3,5.7-0.9,8.6
	c0,2-2.6,4.4,0.8,5.9c4.6,2.9,4.8,8.6,7.8,12.5c0.9,1.5,1.9,3,2.4,4.8c0.6,2.4,0.9,4.9,3.1,6.5c0.3,0.4,0.4,0.9,0.4,1.5
	c-2.7,4.8-7.3,6.3-12.2,7.1c-1.5,0.2-3.2,0-4.8,0.2c-3.9-0.2-7.6-1.5-11.6-1.5c-7.3,0.1-13.1,2.8-17.4,8.7
	c-2.9,3.2-3.9,7.2-4.9,11.2c-1.3,5.5,1.9,10,3.3,14.8c-2.4,3.7,1.5,4,3,5.5c0.4,0.3,0.8,0.7,1.1,1.1c6.6,5.7,6.1,9.2-1.9,13.2
	c-1,0.5-2.3,1-2,2.2c0.8,4-1.2,6.4-4.2,8.6c-2,1.5-1.5,3.8-1.3,6c0.6,6,0.1,6.6-5.7,8.4c-1.4,0.4-2.8,0.9-4.1,1.3
	c-5.9,2-6.2,2.8-4.1,8.6c1.5,4.3,1,6.5-3.7,6.9c-9.1,0.8-13,6.5-15.2,14.2c-0.7,2.5-1.9,5-4.7,5.4c-6.1,0.9-8.2,5.9-9.8,10.4
	c-1.8,4.9-4.8,9.2-6.3,14.2C496.6,600.1,478.5,600.1,460.4,600.1z"/>
<path class="st6" d="M185.8,299.5c35.1,0,70.1,0,105.3,0c-0.6-2-2.2-1.9-3.5-2.1c-1.9-0.3-4.9,0.9-5.3-1.3c-0.3-2.1,0.8-5.1,2.4-6.8
	c6.1-6.3,8.1-14.3,9.4-22.5c0.5-3.2,1.4-4.2,4.6-4.2c9.6-0.1,13.9-3.9,16.2-13.5c0.2-0.9,0.4-2.4,0.7-2.5c7.2-0.6,6.1-8.4,10.2-11.7
	c1.3-1,2.2-2.4,2.2-4.2c0-0.8,0.4-2.2,0.9-2.3c8.9-2,9.1-10.5,12.5-16.6c1.2-2.1,2.9-2.7,4.7-3.2c4.6-1.4,4.5-4.3,2.2-7.4
	c-1.7-2.3-2.7-4.6-1.4-6.9c1.2-2.3,4-1.2,6-1.1c5.1,0.2,8-0.9,10.6-6.5c1.8-3.9,1.8-11.2,9-11.7c0.6,0,1.8-1.4,1.7-1.9
	c-0.8-5.8,6.7-7.7,6.1-13.3c0-0.2,0.1-0.5,0.2-0.5c8,0.7,5.9-8.7,10.9-10.9c1.5-0.7,1.5-2.3,1.8-3.7c0.4-2.1,1.5-3.2,3.9-3.7
	c4.7-0.9,6.3-5,3.5-8.9c-1.6-2.2-2.9-4.4-1.8-6.9c1.3-2.7,4.2-1.3,6.3-1.4c4.6-0.2,4.6-0.1,9.3-8.2c2.3,0.6,0.9,2.8,1.7,4
	c0.9,1.3,1.4,3.5,3,3.4c1.8-0.2,2-2.3,2.1-3.9c0.1-2.2,0-4.3,0-6.5c0-5.4,0-5.4,3.2-11.2c6,6.5,1.1,15.4,5.5,23.2
	c0-41.8,0-82.6,0-123.5c0.4,0,0.7,0,1.1,0c0,81.3-0.1,162.5-0.1,243.8c0,18.6,0.1,37.2,0.1,55.8c-72.3,0-144.5,0-216.8,0
	c-60.9,0-121.7,0-182.6,0c0-0.4,0-0.7,0-1.1c11.2,0,22.4,0,33.6,0c2-2,4.7-1.7,7.1-1.7c33.5-0.1,67-0.1,100.6,0
	C177.4,297.8,181.7,297.8,185.8,299.5z"/>
<path class="st7" d="M410.5,1.1c0.7,4.4-1.2,8.5-1.2,12.9c0,3.3-2.5,3.9-4.9,3.2c-2.4-0.7-4.2-0.5-5.5,1.7c-0.8,1.4-1.9,0.9-3.2,1.1
	c-4,0.4-8.1-0.4-10,5.6c-1,3.1-4.6,5.8-6,9.6c-0.7,1.8-1.9,3.3-1.9,5.5c0,1-0.5,2.7-1.1,2.9c-5.4,1.8-7,8.2-12.4,10.1
	c-1.3,0.5-2.9,1-3.4,2.5c-2.2,6.8-8.3,11.4-10.1,18.3c-0.4,1.6-1.6,2.3-2.8,3.1c-2.6,1.7-4.2,3.9-3.8,7.2c0.3,2.2-0.6,4.2-2.8,4.6
	c-4.2,0.7-5.9,3.3-8.4,6.5c-2.7,3.4-4.2,6.8-5.5,10.6c-0.4,1.3-0.5,2.8-0.6,4.2c-0.1,1.6-0.8,3.4-2,3.5c-5.1,0.5-6.7,5.7-10,7.4
	c-5.4,2.7-7.6,8.1-12.3,11c-0.7,0.4-1.5,1.2-1.2,2.2c0.3,0.8,1.1,1.1,1.7,0.7c9.2-4.8,1.4,2.8,2.8,3.8c2.2-0.6,4.6-1.6,2.9,2.6
	c-0.7,1.6-0.3,3.6-2.1,4.8c-4.6-5.1-8.7-10.7-13.8-15.4c-5.7-5.4-12.5-9.7-17-16.3c-7.3-7.3-13-16.3-23-20.6
	c-4.1-1.3-8.6,0.9-12.5-1.7c-3.2-0.4-5.4,0.1-7.5,3.5c-2.5,4-6.6,7.1-10,10.5c-0.7,0.7-1.5,0.8-2.2-0.2c-2.7-3.5-1.4-10.2,2.6-12.2
	c2.4-1.2,1.6-2.5,0.6-3.8c-0.9-1.2-0.8-1.9,0.4-2.6c1-0.5,2.1-1,2.6,0.5c0.6,1.8,2,2.3,3.4,1.4c1.5-0.9,0.1-2.3,0-3.4
	c-0.3-3.3,0-5.9,3.7-7.4c3.8-1.6,2.8-6.7,6.1-9.1c3.9-2.8,1.8-6.6,0.5-10.3c-1.5-4.2,1.3-7.1,6.5-7.4c2.9-0.1,6.6,1.2,8.4-2.2
	c1.7-3.3,3-6.8,4-10.4c0.9-3.3,2-5.3,5.9-4.1c3.9,1.2,5.4-0.9,6.2-4.6c1.3-5.7,1-12.6,9.2-14c1.4-0.2,1.6-1.8,1.6-3.2
	c-0.1-2,0.8-4.2,2.5-4.3c5.6-0.6,5.3-4.3,5.1-8.2C330.2,1.1,370.3,1.1,410.5,1.1z"/>
<path class="st8" d="M694.8,600.1c-0.2-2.7,0.1-5,3.5-5.7c2.2-0.4,3.3-2,3-4.4c-0.4-3.1,1.4-5.2,2.8-7.7c2-3.6,3.3-7,8.3-6.4
	c0.5,0.1,1.5-0.9,1.5-1.4c-0.3-4.6,3-7.8,4.4-11.7c1.2-3.5,2.5-4.1,5.5-4c3.1,0.1,4.7-0.9,6.2-4.4c1.9-4.6,3.7-10.1,9.5-12.1
	c0.8-0.3,1.9-1.1,1.9-1.7c0.1-5.1,3.7-8.8,6.1-12.4c2.7-4.1,5.6-7.7,7.7-12.4c1-2.4,5.4-4.4,7.8-7.3c2.1-2.5,3.9-4.5,3.6-7.8
	c-0.2-2.4,1.3-3.6,3.7-3.6c3-0.1,4.7-1.6,4.9-4.6c0.1-1.6,0.5-2.8,2.3-3.2c0.5-0.1,1.3-0.5,1.3-0.8c0.7-5.9,6.3-8.6,8.4-13.6
	c0.3-0.8,0.5-2.3,0.9-2.4c5.9-0.6,8.3-6.4,9.2-9.8c1.7-6,10.4-7.2,8.7-15c-0.5-2.5,3.4-2.7,5.5-3.4c6.4-2.4,7-3.5,4.7-9.9
	c-0.2-0.7-0.6-1.4-0.6-2.1c-0.1-1-0.4-2.5,0.6-3c1.6-0.7,2.1,0.7,2.5,2c0.3,0.9,0.5,2,1.5,2c1.4,0.1,1.6-1.2,1.8-2.2
	c1.8-6.5,3.7-13,5.3-19.6c0.4-1.5,0.7-2.8,2.2-3.4c1,1.5,0.5,3.2,0.5,4.8c0,60.8,0,121.7,0,182.5c0,1.6,0.4,3.3-0.5,4.8
	C784.5,600.1,739.6,600.1,694.8,600.1z"/>
<path class="st9" d="M674.2,301.7c-5.8,0-11.6,0-17.4,0c-37.2,0-74.5,0-111.7,0c0,0.2-0.1,0.4-0.1,0.5c4.6,1.3,9.1,2.6,13.7,3.9
	c1.7,0.5,3.2,1.3,3.2,3.2c0,1.9-1.7,2.1-3.2,2.2c-4.7,0.4-7,1.9-7.6,7.5c-0.5,4.8-0.8,11-9.3,11.5c-5.1,0.3-6.7,7-8.5,11.6
	c-0.9,2.2-1.5,3.9-3.7,4.8c-1.2,0.5-1.9,1.5-2.6,2.6c-5.4,8.8-11,17.5-17.5,25.7c-2.5,3.1-4.7,5.5-8.1,7.3c-4.3,2.3-3.5,6.9-4,10.6
	c-0.6,4.2-1.9,6.1-6.3,6.3c-6,0.4-7.8,6-9.1,10.2c-1.6,5.3-5.1,7-9.5,8.1c-5.5,1.3-7,4.1-5.1,9.4c1.1,3.1,0.5,5.9-2.7,8
	c-3.8,2.4-6.3,7-7.8,10.3c-2.7,6.2-7.6,6.8-12.3,8c-4.4,1.1-6.2,3-6.2,7.3c0,4.2,1.2,8.9-5.4,9.8c-1.8,0.2-1,3.2-1,4.9
	c0,29.3,0,58.6,0,87.9c0,12.3,0,24.6,0,36.9c-0.4,0-0.7,0-1.1,0c0-99.8,0-199.7,0-299.5c63.9,0,127.8,0,191.7,0.1
	c17.1,0,34.3,0.1,51.4,0.2c0.3,0.2,0.5,0.4,0.3,0.6C674.4,301.6,674.3,301.7,674.2,301.7z"/>
<path class="st10" d="M514.6,600.1c-0.2-3.5,0.7-6.3,2.9-9.4c2.4-3.2,2.8-7.7,5.2-11.3c1.6-2.4,2.4-4.2,5.6-4.4
	c6.9-0.4,7-7.1,8.2-11.2c1.7-5.4,4.7-7.1,9.3-8c1.4-0.3,2.8-0.9,4.2-1c4.4-0.4,5.2-2.1,2.8-5.9c-3-4.9-2-7.4,3.4-9.2
	c0.9-0.3,1.7-0.6,2.6-0.8c5.9-1.1,10.7-2.9,7.9-10.7c-0.9-2.4,0.3-4.6,3-5.6c2.7-1,4.3-2.7,2.5-5.8c-1.5-2.5,0.1-3.7,2.2-4.4
	c8-2.7,8.5-4.5,2.8-10.3c-0.4-0.4-0.3-1.3-0.4-2c1.3-0.7,2.5,0,3.5,0.7c7.5,5,15.3,6,23.6,2.1c5.4-1.7,8.4-5.9,10.9-10.7
	c4.1-10,2.2-19.5-5.5-27c-1.6-1.6-4-2.5-4.6-5c4.1-0.6,8.1-1.4,11.9-3.5c1.9-1.1,3.7-1.9,4.5-4.1c2.8,0,3.3,2.5,4.5,4.2
	c2.2,3.1,3.6,6.7,5.8,9.8c1.9,4.2,4.6,7.9,6.6,12c1.7,3.6,4.8,6.6,5.4,10.8c0.2,5.6,3.2,9.8,8.4,11.7c2.7,0.6,4.6,2.9,7.4,3.1
	c1.5,0.7,3.8,0.4,4.2,2.9c-1.9,4.2-5.1,5.5-9.5,4.7c-1.6-0.3-2.2,1.5-2.9,2.8c-2.7,4.7-5.3,8.9-10.8,11.7c-3.3,1.7-7.7,6.3-7.2,11.9
	c0.3,3.4-0.3,6.2-3.7,8.2c-1.9,1.1-3.2,3.1-4.2,5.4c-1.9,4.3-4.4,8.3-9.9,8.7c-1.4,0.1-2.4,1-2.8,2.2c-2.4,7.1-9.7,11.5-11.1,19.4
	c-0.4,2.2-2.1,4.7-4.4,6c-5.1,2.8-7.2,6.8-6.2,12.5C565.3,600.1,540,600.1,514.6,600.1z"/>
<path class="st11" d="M674.2,301.7c0-0.3,0-0.6,0-0.9c24.1-0.1,48.3-0.2,72.4-0.2c27.9,0,55.9,0,83.8,0c0,98.2,0,196.4-0.1,294.6
	c0,1.6,1.3,3.7-1,4.9c0-64,0-128,0-192.1c0-33.5-0.1-67.1,0.1-100.6c0-4.4-1-5.9-5.7-5.9c-18,0.3-36.1,0.1-54.1,0.1
	C737.8,301.7,706,301.7,674.2,301.7z"/>
<path class="st12" d="M233.4,469.9c-8.5-12.1-14.9-25.5-22.6-38.1c-3-4.8-3.7-10-3.4-15.5c0.9-16.3,18-26.2,33.1-19.9
	c7.1,3,11.1,7.9,14.6,13.9c5.8,9.9,11.6,20,17.3,30c0.3,0.6,0.3,1.4,0.5,2.1c-1.5,2.1-1.5,2.1-5.4,1.3c1.5,1.8,2,3.6,2.8,5.2
	c0.7,1.5,1.4,3.1-0.2,4.4c-1.9,1.6-3.3,0.4-4.7-0.9c-0.5-0.5-1-1.1-2.2-1c0.1,2.8,1.2,6-1.9,8.1c-2.5,1.7-4.9,3.6-8,4.3
	c-3.2,0.6-6.5,0.7-9.5,2.1c-1,0.4-2.1,0.7-2.9,1.7c3.8,4,2.9,10.1,6.4,14.4c0.9,1.1,0.4,2.9-1,3.8c-1.9,1.3-2.4-0.8-3.4-1.6
	c-3.1-2.5-3.9-6.3-5.8-9.5C235.9,473,235,471.2,233.4,469.9z"/>
<path class="st13" d="M233.4,469.9c2.3,0.2,3.6,1.8,4.3,3.6c1.6,4.6,4.4,8.3,7.8,12c2.6-4.6-3.4-6.1-3.1-9.4c0.4-4.1-0.7-7-6.6-8.3
	c5.6-2.2,8.9-4.5,13.4-4.8c3.6-0.2,7.2-1.2,10.3-3.9c2.4-2.1,3.9-3.5,1.9-6.6c-0.9-1.3-1-2.9,0.5-3.8c1.7-1.1,2.6,0.5,3.5,1.5
	c1.1,1.1,1.4,4.1,3.8,2.3c2.2-1.5-1-2.6-0.9-4.1c0.1-2.9-3.9-5.1-1.3-8.8c1.8,1.1,1.9,6.7,5.7,2.6c6.7,10.9,14.2,21.4,18.8,33.4
	c3.6,9.5-1.7,22.1-11.2,27.4c-10.5,5.8-21.7,4.6-29.1-3.7C243.5,490.9,237.9,480.6,233.4,469.9z"/>
<path class="st14" d="M177.2,465.6c9.4-10.3,24.8-10.4,34.9-0.7c9.5,9.2,9.3,26.9-0.2,34c-2.9,0.9-5.3,0.9-6.3-2.7
	c-0.3-1.1-1.2-1.8-2.3-2.2c-9.8-3.7-16.8-12.3-26.9-15.4c-2.2-0.7-2.7-2.7-2.8-4.8C173.5,470.5,176.1,468.4,177.2,465.6z"/>
<path class="st15" d="M175,474.2c0,1.5,0,2.9,1.9,3.4c8,1.8,13.4,7.8,20.2,11.7c2,1.2,4,2.3,6.2,3.3c2,0.9,4.5,0.8,4.1,4.4
	c-0.3,3.1,3.4,0.4,4.5,2c-8,9.5-20.2,8.7-27.5,5.4c-9.6-4.4-14.6-14-13.5-25.8C172.1,476.9,171,473.1,175,474.2z"/>
<path class="st16" d="M175,474.2c-2.7,0.1-2.5,3.2-4.2,4.3c0.3-5.2,2.4-9.5,6.3-12.9C178.1,468.9,174.1,470.9,175,474.2z"/>
<path class="st17" d="M614.8,117.3c7.1-7.4,13.8-15.3,21.8-21.7c6.9-5.5,16.2-5.1,22.6,1.1c13.9,13.6,28.1,27,41.1,41.4
	c7.7,8.5,9.7,15.6-0.1,25.9c-13.3,13.9-27.2,27.3-40.7,41c-5.1,5.2-17.4,6.6-23.2,1.2c-7.5-7-14.6-14.3-21.6-21.8
	c0.5-6.1,5.8-8.7,9.4-12.4c3.6-3.6,7.2-7,10.3-11c5.4-7,5.1-14.4-0.7-21c-5.4-6-10.7-12.1-16.7-17.6
	C615.6,121,614.1,119.7,614.8,117.3z"/>
<path class="st18" d="M586.1,189c-8.6-8.5-17.3-16.8-25.6-25.5c-7.8-8.1-7.4-17.8,0.4-25.9c6.9-7.1,13.9-14,20.9-21
	c11.4-11.4,20.3-11.3,31.6,0.5c1.5,2.9-1,4.3-2.5,5.9c-4.7,5-9.7,9.7-14.5,14.6c-7.9,8.1-8.2,16.8-1.1,25.4c1,1.2,2.4,2.3,1.8,4.2
	c-4.3,0.4-6.8,2.5-7.4,7c-0.3,2.3-2.5,3.8-4.3,5.6c1.4,0.4,3.5-0.5,3.6,1.7C589.1,184.4,589.2,187.4,586.1,189z"/>
<path class="st19" d="M597.1,167.1c-2.7-4.3-7.7-6.8-7.9-13c-0.2-6.4,0.6-12,5.4-16.6c5.3-5.1,10.4-10.4,15.6-15.6
	c1.4-1.4,3.1-2.5,3.2-4.8c0.5,0.1,0.9,0.1,1.4,0.2c3.6,5.4,9,9.2,13.1,14.1c2.8,3.3,6.2,6.1,8.6,9.7c4.8,7.1,4.9,15.4-4.1,24.7
	c-6,6.1-13,11.2-17.6,18.6c-0.4,0.1-0.9,0.1-1.3,0.2C607.9,178.8,601.5,173.9,597.1,167.1z"/>
<path class="st20" d="M597.1,167.1c5.8,5.5,12.3,10.3,16.4,17.4c-5.9,7.2-13,10.9-22.5,7.6c-1.9-0.6-3.7-1.3-4.8-3.1
	c0.8-2.5,1.6-5,2.3-7.5c-2.3-1.6-3.1,1.8-4.9,1.1c-0.7-1-0.8-2.3,0-2.9c3.9-2.8,5.6-6.3,6.3-11.2
	C590.5,163.9,594.7,168.3,597.1,167.1z"/>
<path class="st21" d="M185.8,299.5c-40.1,0-80.3,0-120.4,0c-1.7-3.2-4.7-2-7.3-2.1c-7.7-0.4-9.5-2.8-7.2-10.2c1.2-4,0.8-9.3,7.1-9.7
	c1.1-0.1,1.8-1.3,1.8-2.4c0.2-3.1,1.9-4.9,4.6-6.1c0.7-0.3,1.7-1.3,1.7-1.9c-0.3-4.3,2.9-4.6,5.7-6.4c3.5-2.2,3.3-7.5,5.5-11.1
	c0.5-0.9,0.5-2.6,1.1-2.9c5.3-2.3,7.6-7.2,10.8-11.5c5.6-7.5,14.6-12.7,15.3-23.5c0-0.5,0.3-1.4,0.5-1.4c6.8-0.3,7.7-7.2,11-11
	c3.2-3.5,6.3-7.7,8.8-12.2c2.5-4.5,3.9-10.7,10.1-12.5c1.5-0.4,2.9-1.6,3-2.9c0.3-5.2,6-6.8,7.2-11.5c0.7-2.8,4.1-1.2,6.3-1.8
	c2.5-0.8,3.2,0,4.6,2.3c2.6,4.2,6.6,7.5,10.1,11.1c0.7,0.7,1.6,0.7,2.3-0.1c2.5-1,3.6,1.2,4.9,2.4c3.4,3.2,6.6,6.6,10,9.9
	c1,1,2,2.1,3,3.1c7.3,7,13.9,7.4,22.1,1.4c2-1.5,3.4-3.8,6.1-4.3c1.9,0.2,3,1.8,4.3,2.9c2.2,2.3,4.4,4.5,6.7,6.7
	c1.1,1.3,2.7,2.3,2.6,4.3c-4.3,0.3-4.6,4.4-5,6.9c-0.4,2.2,1,5.5,4,6.7c3.2,1.3,2.2,3.2,0.1,4c-3.4,1.2-4.4,3.5-4.5,6.6
	c-0.1,2.3-2,3.2-3.2,4.7c-3.4,4.3-8.9,7.3-8.8,13.8c0,1.2-0.6,2-1.6,2.7c-1,0.8-2.7,1.7-2.7,2.6c0.1,6.4-6.1,8.1-8.8,12.4
	c-0.3,0.5-0.6,1.2-1,1.3c-9.1,1.8-8.9,10.4-12,16.5c-0.5,1.1-1.1,2-2.2,2.2c-5.1,1.3-6.4,6.1-8.7,9.7c-2.6,4.1-0.9,6.7,3.7,8.5
	C180.3,297.5,184,296,185.8,299.5z"/>
<path class="st22" d="M182.5,184.5c-5.1-3.8-8.6-9.4-14-12.9c-3.8-2.8-6.6-6.7-9.3-10.4c-5.5-7.4-4.6-16.5,1.9-23
	c6.7-6.7,13.5-13.3,20.3-20c6-1.8,7.7-0.5,6.9,5.4c-0.6,4.4,2,8.7,0.1,13.2c-0.4,1,0.9,1.3,1.9,1.1c1.4-0.2,2.7-1.1,4.2-0.3
	c1,1.3,0.2,2.4-0.4,3.5c-4.2,7.1-3.6,13.9,0.8,20.7c0.7,1,1.5,2.1,0.9,3.5c-3.8,0.6-5.3,2.4-4.6,6.6c0.7,3.9-0.9,7.8-1.9,11.6
	C188.1,188,185,185.7,182.5,184.5z"/>
<path class="st23" d="M228.2,198c-1.1-1.2-2.2-2.5-3.3-3.7c-4.1-11.4-0.1-20.9,7.3-29.4c3.9-4.5,7.1-9,6.5-15.4
	c-0.4-3.9-1.4-7.4-4.2-10.3c-2.2-2.4-4.1-5-6.1-7.6c-2.6-3.2-4.2-6.8-3.3-11c0.2-0.9,0.4-1.9,0-2.7c-2.5-4.5-0.6-8.3,1.9-11.9
	c4.2-4.9,8.9-9.2,13.6-13.5c4.6,0.2,9.3-1.8,13.8,0.8c-0.9,1.3-2.3,1.7-3.8,1.7c0.8,0.5,1.7,0.2,2.5,0.4c1.6,0.4,3.5,0.9,3.2,2.9
	c-0.2,1.7-2.2,1.6-3.6,1.7c-2.5,0.1-5-0.1-7.5,0.5c0.6,7.7-0.4,15.3-0.3,23c0.4,19.3-0.7,38.6,1.1,57.9c0.5,5-0.2,9.7-4.1,13.5
	c-2.8,2.7,0,4.9,1.3,7.1c1.4,2.3,4.6,4.1,2.4,7.5c-5.1,0.3-8.2-3-11.4-6.1C232.2,201.5,230.7,199.2,228.2,198z"/>
<path class="st24" d="M218.4,187.7c-1.1-1-2.3-2-3.4-3c-3.6-2.3-6.8-5-8.6-9.1c-0.6-8.6-0.9-17.2,0.2-25.7c0.3-2.1,0.8-4.4,0.3-6.4
	c-1.9-7.6,0.5-14.5,3.4-21.2c0.8-2.4,2.4-4.1,4.7-5.3c0.4-0.3,0.8-0.5,1.2-0.8c3.8,4.4,7.3,8.9,10.8,13.4c2.6,3.3,3.8,6.9,4.3,10.9
	c1.7,13.7,1.8,27-8.7,38C220.2,181.1,220,184.7,218.4,187.7z"/>
<path class="st25" d="M215,117c-1.1,1.5-2.1,3-3.2,4.5c-3.6,5.8-9.1,9.8-13.7,14.7c-0.9,1-1.8,2.3-3.6,1.6c-1.4,0-2.3,0.9-3.4,1.5
	c-1.5,0.9-3.3,1.2-4.5,0c-1.5-1.4-0.6-3,0.4-4.3c1.4-2,1.3-4,0.3-6.1c-1.1-2.3-1.1-4.1-0.2-6.9c1.8-5.3-3.4-3-5.8-3.8
	c4-4.8,8.1-9.2,14.9-9.7c5.4-0.4,10.3,0.7,14.2,4.9C211.7,114.9,212.9,116.5,215,117z"/>
<path class="st26" d="M218.4,187.7c-0.8-3-0.1-5.5,1.7-8c3.4-4.6,7.7-9,8.9-14.6c2.7-12.3,3.5-24.7-3.8-36c-1.9-3-4.5-5.6-6.9-8.2
	c-1.3-1.4-2.3-2.8-2-4.7c3.6-3.4,7.1-6.8,10.7-10.3c-3.7,5.7,0,11.7-0.6,17.7c-0.6,5.8,5,9.7,8.6,13.8c6.9,7.8,7.5,18.7,0.4,26.3
	c-7.5,8-12.4,16.6-9.9,28c0.2,0.8-0.3,1.8-0.5,2.6C222.4,192.5,220.1,190.3,218.4,187.7z"/>
<path class="st27" d="M637.3,478.5c-2.7-3.6-5-7.4-6.7-11.6c-0.8-3.2-2.5-6-4.2-8.7c-1.1-1.8-1.8-3.8-0.1-5.5c1.7-1.7,3.7-1,5.3,0.6
	c2.4,2.4,3.4,0.6,5-1.1c6.4-6.6,13.3-12.6,22.7-14.5c1.8-0.4,3-1.1,3.7-2.7c1.6-3.4,3.2-1.8,4.8-0.1c1.8,3.9,4,7.5,6.3,11.1
	c2.1,3.6,4.2,7.3,6.3,10.9c-3.3,6-10.7,4.8-15.3,8.8c-3.4,3-7.2,6.1-12.2,6.2c-1.5,0-2.2,1.2-2.2,2.6c0.1,4.8-2.8,4.1-5.8,3.2
	C642.3,476.8,639.5,475.3,637.3,478.5z"/>
<path class="st28" d="M637.3,478.5c-0.4-3.9,1.1-4.8,4.7-3.3c2.3,1,4.7,1.5,7.8,2.5c-1.2-5.2-1-7.9,5.6-7.7c3.9,0.1,7.9-4.5,11.8-7
	c0.5-0.3,0.8-0.8,1.3-1c4-1.7,8.1-3.5,12.1-5.2c3.8,6.3,8.5,12,10.1,19.4c-2.7,2.2-4.5,0.2-6.6-1.5c-0.3,3.4-1.8,5.7-5.2,6.5
	c-7,1.6-12.9,5-18,10.2c-1.5,1.5-3.2,3-5.4,3.3c-2.8,0.3-3.8,2.3-4.9,4.4c-6.2-0.3-6.4-5.6-8-9.7
	C641.8,485.3,638.4,482.4,637.3,478.5z"/>
<path class="st29" d="M650.2,499.4c-0.1-3.2-0.1-6,4.6-5.8c2.9,0.1,5-2.7,6.9-4.7c3.4-3.3,7-6,11.7-7.4c5.4-1.6,12.1-2.3,9.5-11.8
	c2.4,3.5,3,7.5,7.7,6.6c3.9,14.7-6.7,29.4-21.8,30.3c-1.8,0.1-3.6,0.1-5.4,0.1c-1.5-0.6-3-1.3-4.5-1.9c-2.8-0.7-4.3-3.8-7.4-3.9
	C650.6,500.7,650.2,500.3,650.2,499.4z"/>
<path class="st30" d="M674.3,445.9c-4.1-2.4-6.1-6.1-6.8-10.7c0.2-0.1,0.4-0.3,0.6-0.4c3.7,1.9,4.2,5.9,6,9c0,0,0,0.1,0,0.1
	C674.1,444.6,674.2,445.3,674.3,445.9z"/>
<path class="st31" d="M245.5,209.4c0.1-5-5.1-6.6-6.6-10.7c-0.8-2.2-1.4-3.2,1.1-4.6c3.4-1.9,4.7-5.2,4.4-9.1
	c-1.8-24.1-0.9-48.3-1.1-72.4c0-1.8-0.2-3.7,0.4-5.4c1.3-3.6,0.6-5.9-4.7-7.3c6.4-1.8,11.5-1.5,17.3-1.3c-3.8-3.5-8-0.8-11.8-2.9
	c3.4-1.8,6.6-2.1,9.8-2.4c4.7,1,7.4,4.8,10.3,8c4,4.3,8.9,7.7,12.1,12.8c-3,2.1-4.9-0.8-7.6-1.5c4.3,3.1,3.7,6.9,3.4,11.5
	c-0.7,11.8-1.9,23.8,1.1,35.5c1,3.9,1.3,8.1,0.2,11.8c-2,6.2-1.3,11.6,3.1,16.4c-5.5,7.1-12.2,13.1-18.9,19.1
	C254.4,209.9,250,210.1,245.5,209.4z"/>
<path class="st32" d="M276.8,187.7c-5.5-2.8-7.5-6.8-5.3-13.1c2.1-6.1,1.4-12.2-0.3-18.5c-1.8-6.4-0.7-13.3-0.6-19.9
	c0.1-5.7-1.3-11.5,1.5-17c1.1-2.1-1-3.2-2.5-4.1c-2.1-1.2-4.9-2.5-2.7-5.1c2-2.4,3.1,0.7,4.5,1.8c1.5,1.4,3.3,2.2,5.4,2.1
	c7.5,7.2,14.9,14.5,22.5,21.7c3.3,3.1,6,6.6,7.6,10.9c1.3,7.1-0.9,13.1-6.1,18C292.7,172.2,285.3,180.6,276.8,187.7z"/>
<path class="st30" d="M667.5,435.3c-1,0.6-2.9-3.7-3.3,0.7c-0.2,1.8-1.8,3.7-3.7,3.2c-5.3-1.5-8.5,2.2-11.8,4.8
	c-4.3,3.4-10.4,4.9-12.4,11.3c-0.6,1.9-4.2,2.6-5.3-0.8c-0.7-2-2.4-1.8-3.4-1.5c-1.8,0.6-1,2.3-0.6,3.7c1.1,3.4,5.1,5.8,3.7,10.2
	c-3.9-4.4-5.4-10.3-9.5-14.5c0,0,0,0,0,0c-3-1.2-2.7-4.6-4.4-6.7c0.4-1.8-1.6-2.6-1.7-4.3c-1.3-6.2,0.8-12.5,6.1-15.4
	c6.9-3.7,13.1-9.2,21.3-10c2.5-0.3,3.6-2.2,4.2-4.4c0.9-3.3,2.8-4.5,6-2.7c4.1,6.6,8.3,13.2,12.4,19.8c2.1,1.5,3.7,3.3,2.7,6.2
	L667.5,435.3z"/>
<path class="st33" d="M652.8,409c-2.8-0.1-4.7,0.4-4.9,4.1c-0.1,3.1-2.5,4.5-5.6,4.8c-8.9,0.8-15.4,6.6-22.4,11.2
	c-3.9,2.5-4.2,7.9-4.9,12.5c-4-3.6-3.7-9.7-8.1-13.1c-1.4-1.2-1.2-2.9-0.9-4.5c0.8-3.4-0.2-7,0.6-10.4c2.2-11.9,11.4-18.4,22.1-19.3
	C639,393.3,648.5,399.2,652.8,409z"/>
<path class="st34" d="M615.6,492.7c-2.1,5.2-5.5,9-10.7,11.1c-4.4-7.4-12.5-10-19.3-13.9c-3.7-2.1-5.9-5.9-10.1-7.3
	c-2.2-0.7-4.5-2.2-6.3-4c1.9-3.5,1.6-8.2,5.3-10.8c1.3-0.9,2.7-1.8,4.1-2.5c1.5-0.8,3.2-1.1,4.5,0.3c6.1,6.4,13.8,10.5,21.6,14.4
	c1.5,0.8,2.7,1.7,3.5,3.2c0.6,1.1,1.3,2,2.8,2.3C617.6,486.4,617.6,486.4,615.6,492.7z"/>
<path class="st35" d="M615.6,492.7c0.1-1.1,0.3-2.1,0.3-3.2c0-2.6-0.2-4.9-3.8-2.9c-1.5,0.8-3,0.8-4.3-0.8
	c-5.7-7.6-14.9-10.2-22.3-15.4c-0.4-0.3-1.4-0.1-1.5-0.2c-1.6-7.2-6.4-2.2-9.7-2.5c4.6-9,14.8-10.7,24.1-9.3c2.1,0.3,4.1,1,6.2,1.5
	c11.3,7.5,15.6,16.6,13.1,28C617.4,489.7,617,491.4,615.6,492.7z"/>
<path class="st36" d="M569.1,478.6c5.3,1.7,10.2,3.7,13.8,8.5c1.2,1.6,4.9,1.8,7.2,3.6c3.2,2.5,6.9,4.6,10.6,6.4
	c3.1,1.5,4.4,3.5,4.2,6.7c-10.2,5.5-19.4,2.7-28-3.8c0,0-0.1,0-0.1,0c-1.5-1.5-3.5-2.7-3.8-5.1C571,489.6,567.4,484.7,569.1,478.6z"
	/>
<path class="st2" d="M667.9,435c-0.9-2.1-1.8-4.1-2.7-6.2c1.8,0.1,2.5-1.8,5.2-2.6c-2,7,3.2,11.7,3.7,17.7
	C672,440.9,669.9,437.9,667.9,435z"/>
<path class="st3" d="M627.9,390.4c-2.8,1.8-5.2,1.3-6.8,3.1c-0.8,0.9-3.1,0.9-3.6-0.9c-0.5-1.7,1.2-2.6,2.5-2.8
	C622.3,389.4,624.6,389.3,627.9,390.4z"/>
<path class="st10" d="M572.9,494.9c1.3,1.7,3.1,3,3.8,5.1c-2.1,0.4-3.9-2.8-6.2,0.3C570.4,497.5,572.1,496.4,572.9,494.9z"/>
<path class="st10" d="M606.6,424.2c0.1,1.4,0.2,2.8,0.3,4.1c-0.3,1.1-0.9,3.2-2,0.9c-0.8-1.7-1-4.2,0.7-6.1
	C606.2,423.4,606.5,423.8,606.6,424.2z"/>
<path class="st10" d="M616.7,445.7c2.5,1.5,3.1,4.3,4.4,6.7C616,452.6,617.9,448.1,616.7,445.7z"/>
<path class="st3" d="M606.6,424.2c-0.3-0.3-0.6-0.7-0.9-1c0.5-3.2-0.9-6.6,0.9-9.7C606.6,417.1,606.6,420.7,606.6,424.2z"/>
<path class="st1" d="M251.2,90.7c-1.9,0.7-3.9,0.6-5.8,0.1C248.3,86.8,248.8,86.8,251.2,90.7z"/>
<path class="st2" d="M650.2,499.4c0,0.7,0.4,1,1,0.9c0.4,0.1,0.6,0.3,0.5,0.5c-0.1,0.3-0.2,0.4-0.3,0.4c-0.2,0.2-0.5,0.7-0.7,0.7
	c-4.2-0.9-8.7-7.9-8.1-12.5C645.1,492.8,646.1,497.3,650.2,499.4z"/>
<path class="st28" d="M651.4,501.2c0-0.3-0.1-0.6-0.2-0.9c4-1,5.4,2.5,7.7,4.4C655.7,505.2,654,502.3,651.4,501.2z"/>
<path class="st12" d="M250.7,470.9c0,1.9-0.9,2.2-2.2,2.1c-1.3-0.1-1.9-0.9-1.9-2.1c0-1,0.4-1.8,1.5-1.9
	C249.7,468.9,250.4,469.9,250.7,470.9z"/>
<path class="st37" d="M207.6,176.8c2.8,2.4,5.7,4.6,7.4,7.9c-3.1,2.4-6,5.2-9.4,7.1c-9.3,4.9-16.1,1.5-23.1-7.2
	c5,1.4,5.9-0.9,6.3-5.5c0.4-4,0.7-7.8,0.5-11.8c-0.2-5.1,3.7-2.6,6.2-2.3C201.1,167.3,204.1,172.4,207.6,176.8z"/>
<path class="st38" d="M207.6,176.8c-4.7-3.2-8-7.9-12-11.8c-6.9-7.4-8.2-18.8-1.1-27.2c6-5.2,10.9-11.6,17.3-16.3
	c-0.8,3.5-1.2,7-3.6,10c-0.6,0.7-0.8,2.1-0.6,3.1C210.1,148.6,206.1,162.7,207.6,176.8z"/>
</svg>
